<svg width="64" height="64" viewBox="0 0 64 64" fill="none" xmlns="http://www.w3.org/2000/svg">
<path fill-rule="evenodd" clip-rule="evenodd" d="M46.4264 17.8579C46.8169 18.2484 46.8169 18.8816 46.4264 19.2721L19.5563 46.1421C19.1658 46.5327 18.5327 46.5327 18.1421 46.1421V46.1421C17.7516 45.7516 17.7516 45.1184 18.1421 44.7279L45.0122 17.8579C45.4027 17.4673 46.0359 17.4673 46.4264 17.8579V17.8579Z" fill="#FF7777"/>
<path fill-rule="evenodd" clip-rule="evenodd" d="M18.1421 17.8579C18.5327 17.4673 19.1658 17.4673 19.5563 17.8579L46.4264 44.7279C46.8169 45.1184 46.8169 45.7516 46.4264 46.1421V46.1421C46.0359 46.5327 45.4027 46.5327 45.0122 46.1421L18.1421 19.2721C17.7516 18.8816 17.7516 18.2484 18.1421 17.8579V17.8579Z" fill="#FF7777"/>
<path fill-rule="evenodd" clip-rule="evenodd" d="M32.2843 36.2426L20.9706 47.5563C19.799 48.7279 17.8995 48.7279 16.7279 47.5563C15.5563 46.3848 15.5563 44.4853 16.7279 43.3137L28.0416 32L16.7279 20.6863C15.5563 19.5147 15.5563 17.6152 16.7279 16.4437C17.8995 15.2721 19.799 15.2721 20.9706 16.4437L32.2843 27.7574L43.598 16.4437C44.7695 15.2721 46.669 15.2721 47.8406 16.4437C49.0122 17.6152 49.0122 19.5147 47.8406 20.6863L36.5269 32L47.8406 43.3137C49.0122 44.4853 49.0122 46.3848 47.8406 47.5563C46.669 48.7279 44.7696 48.7279 43.598 47.5563L32.2843 36.2426ZM32.2843 33.4142L45.0122 46.1421C45.4027 46.5327 46.0359 46.5327 46.4264 46.1421C46.8169 45.7516 46.8169 45.1184 46.4264 44.7279L33.6985 32L46.4264 19.2721C46.8169 18.8816 46.8169 18.2484 46.4264 17.8579C46.0359 17.4673 45.4027 17.4673 45.0122 17.8579L32.2843 30.5858L19.5563 17.8579C19.1658 17.4673 18.5327 17.4673 18.1421 17.8579C17.7516 18.2484 17.7516 18.8816 18.1421 19.2721L30.8701 32L18.1421 44.7279C17.7516 45.1184 17.7516 45.7516 18.1421 46.1421C18.5327 46.5327 19.1658 46.5327 19.5563 46.1421L32.2843 33.4142Z" fill="black"/>
</svg>
